<?xml version="1.0" encoding="utf-8"?>
<!-- Generator: Adobe Illustrator 16.0.0, SVG Export Plug-In . SVG Version: 6.00 Build 0)  -->
<!DOCTYPE svg PUBLIC "-//W3C//DTD SVG 1.1//EN" "http://www.w3.org/Graphics/SVG/1.1/DTD/svg11.dtd">
<svg version="1.1" id="Calque_1" xmlns="http://www.w3.org/2000/svg" xmlns:xlink="http://www.w3.org/1999/xlink" x="0px" y="0px"
	 width="18px" height="18px" viewBox="0 0 18 18" enable-background="new 0 0 18 18" xml:space="preserve">
<path fill-rule="evenodd" clip-rule="evenodd" fill="#FFFFFF" d="M9.007,0.449c-4.784,0-8.664,3.879-8.664,8.668
	c0,3.828,2.482,7.076,5.926,8.221c0.433,0.08,0.591-0.188,0.591-0.417c0-0.206-0.007-0.752-0.012-1.475
	c-2.41,0.524-2.918-1.162-2.918-1.162c-0.394-1-0.962-1.267-0.962-1.267c-0.787-0.537,0.06-0.527,0.06-0.527
	c0.87,0.062,1.327,0.894,1.327,0.894c0.773,1.324,2.028,0.942,2.521,0.721c0.079-0.561,0.303-0.943,0.55-1.159
	c-1.924-0.219-3.947-0.962-3.947-4.283c0-0.947,0.338-1.721,0.892-2.327c-0.089-0.219-0.386-1.1,0.085-2.292
	c0,0,0.728-0.233,2.382,0.888C7.53,4.738,8.271,4.642,9.008,4.639c0.736,0.003,1.477,0.099,2.169,0.292
	c1.654-1.122,2.381-0.888,2.381-0.888c0.472,1.193,0.175,2.074,0.086,2.292c0.555,0.606,0.89,1.38,0.89,2.327
	c0,3.329-2.025,4.063-3.956,4.276c0.313,0.268,0.588,0.797,0.588,1.605c0,1.158-0.01,2.092-0.01,2.377
	c0,0.231,0.155,0.5,0.596,0.416c3.44-1.148,5.92-4.394,5.92-8.22C17.672,4.328,13.793,0.449,9.007,0.449z"/>
</svg>
