<?xml version="1.0" encoding="utf-8"?>
<!-- Generator: Adobe Illustrator 16.0.0, SVG Export Plug-In . SVG Version: 6.00 Build 0)  -->
<!DOCTYPE svg PUBLIC "-//W3C//DTD SVG 1.1//EN" "http://www.w3.org/Graphics/SVG/1.1/DTD/svg11.dtd">
<svg version="1.1" id="Calque_1" xmlns="http://www.w3.org/2000/svg" xmlns:xlink="http://www.w3.org/1999/xlink" x="0px" y="0px"
	 width="18px" height="18px" viewBox="0 0 18 18" enable-background="new 0 0 18 18" xml:space="preserve">
<g>
	<path fill="#FFFFFF" d="M3.602,1.285c-1.324,0-2.397,1.074-2.397,2.398v11.076c0,1.324,1.074,2.399,2.397,2.399h11.081
		c1.324,0,2.395-1.075,2.395-2.399V3.683c0-1.324-1.07-2.398-2.395-2.398H3.602z M5.54,3.261c0.815,0,1.319,0.537,1.335,1.24
		c0,0.689-0.52,1.24-1.352,1.24H5.508c-0.8,0-1.319-0.55-1.319-1.24C4.189,3.797,4.724,3.261,5.54,3.261L5.54,3.261z M12.572,6.554
		c1.571,0,2.746,1.024,2.746,3.229v4.117h-2.384v-3.84c0-0.966-0.347-1.624-1.21-1.624c-0.66,0-1.051,0.442-1.222,0.872
		c-0.063,0.153-0.081,0.368-0.081,0.583v4.009H8.038c0,0,0.031-6.505,0-7.177h2.384v1.017C10.739,7.25,11.306,6.554,12.572,6.554
		L12.572,6.554z M4.331,6.721h2.385v7.178H4.331V6.721z M4.331,6.721"/>
</g>
</svg>
