<?xml version="1.0" encoding="utf-8"?>
<!-- Generator: Adobe Illustrator 16.0.0, SVG Export Plug-In . SVG Version: 6.00 Build 0)  -->
<!DOCTYPE svg PUBLIC "-//W3C//DTD SVG 1.1//EN" "http://www.w3.org/Graphics/SVG/1.1/DTD/svg11.dtd">
<svg version="1.1" id="Calque_1" xmlns="http://www.w3.org/2000/svg" xmlns:xlink="http://www.w3.org/1999/xlink" x="0px" y="0px"
	 width="18px" height="18px" viewBox="0 0 18 18" enable-background="new 0 0 18 18" xml:space="preserve">
<g>
	<path fill="none" d="M16.934,4.828V4.375c0-0.208-0.169-0.376-0.393-0.428l-0.133,0.117C16.716,4.222,16.934,4.498,16.934,4.828z"
		/>
	<path d="M8.53,9.263c0.161,0.144,0.442,0.163,0.603,0.021L15.123,4H2.542L8.53,9.263z"/>
	<path fill="#FFFFFF" d="M0,14.319v0.452c0,0.5,0.474,0.904,1.058,0.904h0.529C0.712,15.676,0,15.067,0,14.319z"/>
	<path d="M16.441,4.064L9.873,9.863C9.6,10.105,9.227,10.239,8.84,10.239c-0.387,0-0.755-0.134-1.028-0.376L1.207,4.044
		C1.101,4.127,1,4.243,1,4.375v9.944C1,14.568,1.295,15,1.587,15h14.817C16.695,15,17,14.568,17,14.319V4.828
		C17,4.498,16.749,4.222,16.441,4.064z"/>
	<path fill="#FFFFFF" d="M17.316,3.255C17.057,3.102,16.741,3,16.404,3h-0.261H1.587C1.566,3,1.547,3.014,1.526,3.015
		C1.128,3.028,0.769,3.17,0.498,3.389C0.193,3.636,0,3.988,0,4.375v0.453v9.492C0,15.067,0.712,16,1.587,16h14.288h0.529
		C17.279,16,18,15.067,18,14.319V4.375C18,3.916,17.725,3.501,17.316,3.255z M15.123,4l-5.99,5.263
		C8.972,9.406,8.691,9.426,8.53,9.283L2.542,4H15.123z M17,4.828v9.492C17,14.568,16.695,15,16.404,15H1.587
		C1.295,15,1,14.568,1,14.319V4.375c0-0.132,0.099-0.248,0.204-0.331l6.589,5.819c0.273,0.242,0.645,0.376,1.031,0.376
		c0.387,0,0.755-0.134,1.028-0.376l6.554-5.799l0.167-0.117C16.797,3.999,17,4.167,17,4.375V4.828z"/>
</g>
</svg>
