<?xml version="1.0" encoding="utf-8"?>
<!-- Generator: Adobe Illustrator 16.0.0, SVG Export Plug-In . SVG Version: 6.00 Build 0)  -->
<!DOCTYPE svg PUBLIC "-//W3C//DTD SVG 1.1//EN" "http://www.w3.org/Graphics/SVG/1.1/DTD/svg11.dtd">
<svg version="1.1" id="Calque_1" xmlns="http://www.w3.org/2000/svg" xmlns:xlink="http://www.w3.org/1999/xlink" x="0px" y="0px"
	 width="350px" height="500px" viewBox="0 0 350 500" enable-background="new 0 0 350 500" xml:space="preserve">
<line fill="none" stroke="#F29100" stroke-width="2" stroke-miterlimit="10" x1="264.316" y1="391.064" x2="307.904" y2="418.255"/>
<line fill="none" stroke="#F29100" stroke-width="2" stroke-miterlimit="10" x1="264.316" y1="391.064" x2="259.199" y2="436.203"/>
<line fill="none" stroke="#F29100" stroke-width="2" stroke-miterlimit="10" x1="72.362" y1="340.116" x2="57.325" y2="379.557"/>
<line fill="none" stroke="#F29100" stroke-width="2" stroke-miterlimit="10" x1="264.121" y1="329.656" x2="264.316" y2="391.064"/>
<line fill="none" stroke="#F29100" stroke-width="2" stroke-miterlimit="10" x1="263.46" y1="330.086" x2="214.365" y2="355.336"/>
<line fill="none" stroke="#F29100" stroke-width="2" stroke-miterlimit="10" x1="263.921" y1="331.342" x2="304.586" y2="353.095"/>
<g>
	<path fill="#FFFFFF" d="M304.585,358.969c-2.512,0-4.745-1.601-5.556-3.982c-0.507-1.484-0.404-3.077,0.287-4.483
		c0.691-1.407,1.891-2.461,3.376-2.967c0.613-0.21,1.251-0.315,1.895-0.315c2.511,0,4.744,1.599,5.558,3.979
		c1.043,3.065-0.602,6.409-3.665,7.454C305.865,358.862,305.229,358.969,304.585,358.969z"/>
	<path fill="#F29100" d="M304.587,348.221c2.027,0,3.919,1.276,4.611,3.302c0.867,2.548-0.494,5.315-3.042,6.185
		c-0.521,0.178-1.051,0.262-1.571,0.262c-2.027,0-3.919-1.276-4.609-3.305c-0.868-2.547,0.49-5.313,3.039-6.182
		C303.535,348.305,304.065,348.221,304.587,348.221 M304.587,346.221L304.587,346.221c-0.754,0-1.5,0.124-2.218,0.369
		c-1.737,0.592-3.141,1.824-3.95,3.472c-0.81,1.646-0.929,3.51-0.336,5.248c0.948,2.786,3.563,4.659,6.502,4.659
		c0.753,0,1.499-0.124,2.217-0.369c3.586-1.223,5.511-5.136,4.29-8.722C310.139,348.091,307.525,346.221,304.587,346.221
		L304.587,346.221z"/>
</g>
<line fill="none" stroke="#F29100" stroke-width="2" stroke-miterlimit="10" x1="226.174" y1="297.033" x2="264.121" y2="329.656"/>
<g>
	<path fill="#FFFFFF" d="M264.12,335.53c-2.512,0-4.745-1.601-5.557-3.981c-1.043-3.063,0.6-6.406,3.662-7.451
		c0.614-0.209,1.252-0.315,1.896-0.315c2.513,0,4.746,1.6,5.559,3.979c1.043,3.066-0.602,6.41-3.666,7.453
		C265.4,335.424,264.764,335.53,264.12,335.53z"/>
	<path fill="#F29100" d="M264.121,324.782c2.027,0,3.921,1.276,4.612,3.303c0.866,2.547-0.493,5.315-3.042,6.184
		c-0.521,0.178-1.051,0.262-1.571,0.262c-2.027,0-3.919-1.276-4.61-3.305c-0.867-2.547,0.492-5.313,3.039-6.182
		C263.069,324.866,263.6,324.782,264.121,324.782 M264.121,322.782c-0.754,0-1.5,0.124-2.218,0.368
		c-3.585,1.224-5.508,5.135-4.287,8.72c0.951,2.788,3.564,4.66,6.504,4.66c0.753,0,1.499-0.124,2.217-0.369
		c3.585-1.221,5.51-5.133,4.29-8.72C269.676,324.653,267.062,322.782,264.121,322.782L264.121,322.782z"/>
</g>
<g>
	<path fill="#FFFFFF" d="M214.363,361.209c-2.511,0-4.744-1.601-5.556-3.983c-1.044-3.063,0.6-6.405,3.663-7.449
		c0.613-0.21,1.251-0.315,1.895-0.315c2.512,0,4.745,1.599,5.558,3.979c1.044,3.065-0.601,6.409-3.665,7.454
		C215.644,361.103,215.007,361.209,214.363,361.209z"/>
	<path fill="#F29100" d="M214.365,350.461c2.027,0,3.92,1.276,4.611,3.302c0.867,2.548-0.493,5.315-3.042,6.185
		c-0.521,0.178-1.05,0.262-1.571,0.262c-2.026,0-3.918-1.277-4.609-3.306c-0.867-2.546,0.491-5.313,3.039-6.181
		C213.313,350.545,213.844,350.461,214.365,350.461 M214.365,348.461L214.365,348.461c-0.754,0-1.5,0.124-2.218,0.369
		c-3.585,1.221-5.508,5.133-4.287,8.718c0.95,2.788,3.564,4.661,6.503,4.661c0.753,0,1.499-0.124,2.217-0.369
		c3.586-1.223,5.511-5.135,4.29-8.722C219.919,350.332,217.305,348.461,214.365,348.461L214.365,348.461z"/>
</g>
<g>
	<path fill="#FFFFFF" d="M264.316,396.936c-2.513,0-4.746-1.601-5.557-3.982c-1.043-3.063,0.6-6.405,3.662-7.45
		c0.614-0.209,1.252-0.315,1.895-0.315c2.512,0,4.745,1.599,5.56,3.979c1.043,3.066-0.603,6.409-3.667,7.453
		C265.596,396.829,264.959,396.936,264.316,396.936z"/>
	<path fill="#F29100" d="M264.316,386.188c2.028,0,3.92,1.276,4.613,3.303c0.866,2.547-0.495,5.315-3.043,6.184
		c-0.521,0.178-1.05,0.262-1.57,0.262c-2.027,0-3.92-1.276-4.61-3.305c-0.867-2.547,0.491-5.313,3.039-6.182
		C263.266,386.271,263.796,386.188,264.316,386.188 M264.316,384.188c-0.753,0-1.498,0.124-2.217,0.368
		c-3.585,1.224-5.508,5.135-4.287,8.72c0.95,2.787,3.563,4.66,6.504,4.66c0.753,0,1.498-0.124,2.216-0.369
		c3.586-1.222,5.511-5.134,4.291-8.72C269.87,386.059,267.256,384.188,264.316,384.188L264.316,384.188z"/>
</g>
<g>
	<path fill="#FFFFFF" d="M260.45,443.328c-2.514,0-4.747-1.601-5.558-3.982c-1.043-3.063,0.6-6.405,3.662-7.45
		c0.614-0.21,1.252-0.315,1.896-0.315c2.511,0,4.745,1.599,5.56,3.979c1.041,3.065-0.604,6.408-3.666,7.453
		C261.729,443.222,261.093,443.328,260.45,443.328z"/>
	<path fill="#F29100" d="M260.45,432.58c2.028,0,3.92,1.276,4.613,3.303c0.865,2.547-0.495,5.314-3.043,6.184
		c-0.521,0.178-1.05,0.262-1.57,0.262c-2.027,0-3.921-1.276-4.611-3.305c-0.867-2.547,0.492-5.313,3.039-6.182
		C259.398,432.664,259.929,432.58,260.45,432.58 M260.45,430.58L260.45,430.58c-0.754,0-1.5,0.124-2.218,0.369
		c-3.585,1.223-5.508,5.134-4.287,8.719c0.949,2.787,3.563,4.66,6.505,4.66c0.753,0,1.498-0.124,2.216-0.369
		c3.584-1.223,5.509-5.134,4.291-8.72C266.003,432.451,263.389,430.58,260.45,430.58L260.45,430.58z"/>
</g>
<g>
	<path fill="#FFFFFF" d="M307.906,424.128c-2.513,0-4.746-1.601-5.557-3.982c-0.506-1.484-0.404-3.077,0.287-4.483
		c0.692-1.407,1.891-2.461,3.376-2.967c0.613-0.21,1.251-0.315,1.895-0.315c2.512,0,4.745,1.599,5.559,3.979
		c1.042,3.066-0.603,6.409-3.665,7.454C309.187,424.021,308.55,424.128,307.906,424.128z"/>
	<path fill="#F29100" d="M307.907,413.38c2.028-0.001,3.92,1.276,4.612,3.302c0.866,2.548-0.494,5.315-3.042,6.185
		c-0.521,0.178-1.051,0.262-1.571,0.262c-2.027,0-3.92-1.276-4.61-3.305c-0.868-2.547,0.491-5.313,3.039-6.182
		C306.855,413.464,307.387,413.38,307.907,413.38 M307.907,411.38L307.907,411.38c-0.754,0-1.5,0.124-2.218,0.369
		c-1.737,0.592-3.141,1.825-3.95,3.472s-0.929,3.511-0.336,5.248c0.948,2.786,3.563,4.659,6.503,4.659
		c0.753,0,1.499-0.124,2.217-0.369c3.585-1.223,5.509-5.135,4.29-8.721C313.46,413.25,310.847,411.38,307.907,411.38L307.907,411.38
		z"/>
</g>
<line fill="none" stroke="#F29100" stroke-width="2" stroke-miterlimit="10" x1="129.485" y1="331.314" x2="72.332" y2="342.197"/>
<g>
	<path fill="#FFFFFF" d="M72.332,348.071c-2.513,0-4.746-1.601-5.557-3.983c-0.506-1.484-0.403-3.076,0.288-4.482
		c0.691-1.407,1.89-2.461,3.375-2.967c0.614-0.21,1.252-0.315,1.896-0.315c2.511,0,4.745,1.599,5.558,3.979
		c1.042,3.066-0.603,6.409-3.666,7.454C73.611,347.965,72.974,348.071,72.332,348.071z"/>
	<path fill="#F29100" d="M72.333,337.323c2.028-0.001,3.919,1.276,4.612,3.302c0.866,2.548-0.494,5.315-3.042,6.185
		c-0.52,0.177-1.05,0.262-1.57,0.262c-2.027,0-3.919-1.276-4.61-3.306c-0.868-2.546,0.491-5.313,3.039-6.181
		C71.281,337.407,71.811,337.323,72.333,337.323 M72.333,335.323L72.333,335.323c-0.754,0-1.5,0.124-2.218,0.369
		c-1.737,0.592-3.14,1.825-3.949,3.472c-0.81,1.646-0.929,3.51-0.337,5.247c0.949,2.787,3.563,4.66,6.503,4.66
		c0.752,0,1.498-0.124,2.215-0.368c3.586-1.223,5.511-5.136,4.292-8.722C77.885,337.193,75.271,335.323,72.333,335.323
		L72.333,335.323z"/>
</g>
<line fill="none" stroke="#F29100" stroke-width="2" stroke-miterlimit="10" x1="159.911" y1="379.472" x2="181.046" y2="415.16"/>
<g>
	<path fill="#FFFFFF" d="M181.053,421.033c-2.107,0-4.065-1.138-5.109-2.97c-1.602-2.813-0.617-6.403,2.194-8.007
		c0.886-0.504,1.889-0.771,2.902-0.771c2.105,0,4.063,1.136,5.107,2.965c1.602,2.814,0.617,6.408-2.195,8.012
		C183.067,420.767,182.064,421.033,181.053,421.033z"/>
	<path fill="#F29100" d="M181.04,410.286c1.693,0,3.339,0.885,4.239,2.461c1.331,2.339,0.517,5.313-1.822,6.647
		c-0.761,0.433-1.588,0.639-2.404,0.639c-1.694,0-3.34-0.886-4.24-2.465c-1.331-2.337-0.518-5.31,1.82-6.643
		C179.395,410.492,180.223,410.286,181.04,410.286 M181.04,408.286L181.04,408.286c-1.187,0-2.361,0.312-3.397,0.901
		c-3.29,1.877-4.442,6.08-2.568,9.37c1.221,2.145,3.512,3.476,5.978,3.476c1.186,0,2.359-0.312,3.394-0.9
		c3.292-1.878,4.444-6.083,2.571-9.375C185.794,409.615,183.504,408.286,181.04,408.286L181.04,408.286z"/>
</g>
<line fill="none" stroke="#F29100" stroke-width="2" stroke-miterlimit="10" x1="132.507" y1="331.222" x2="160.86" y2="381.552"/>
<g>
	<path fill="#FFFFFF" d="M160.861,387.425c-2.106,0-4.062-1.136-5.104-2.965c-1.602-2.812-0.618-6.404,2.194-8.01
		c0.886-0.505,1.89-0.771,2.903-0.771c2.107,0,4.065,1.137,5.107,2.967c1.602,2.812,0.616,6.404-2.198,8.009
		C162.878,387.158,161.875,387.425,160.861,387.425z"/>
	<path fill="#F29100" d="M160.854,376.679c1.694,0,3.34,0.885,4.239,2.462c1.332,2.338,0.515,5.311-1.825,6.645
		c-0.761,0.434-1.59,0.64-2.408,0.64c-1.692,0-3.337-0.884-4.235-2.46c-1.333-2.34-0.515-5.313,1.821-6.646
		C159.208,376.885,160.037,376.679,160.854,376.679 M160.855,374.679L160.855,374.679c-1.187,0-2.362,0.313-3.397,0.901
		c-3.292,1.88-4.444,6.085-2.57,9.375c1.22,2.141,3.509,3.47,5.973,3.47c1.187,0,2.361-0.312,3.397-0.901
		c3.293-1.878,4.447-6.082,2.573-9.373C165.611,376.009,163.321,374.679,160.855,374.679L160.855,374.679z"/>
</g>
<line fill="none" stroke="#F29100" stroke-width="2" stroke-miterlimit="10" x1="82.831" y1="288.956" x2="27.031" y2="258.725"/>
<line fill="none" stroke="#E61B72" stroke-width="2" stroke-miterlimit="10" x1="115.676" y1="100.444" x2="80.513" y2="58.103"/>
<g>
	<path fill="#FFFFFF" d="M83.73,65.919c-1.568-0.04-3.027-0.689-4.106-1.827c-1.08-1.138-1.651-2.628-1.61-4.197
		c0.082-3.207,2.657-5.719,5.863-5.719l0.158,0.002c1.568,0.04,3.026,0.688,4.106,1.825c1.08,1.137,1.653,2.627,1.612,4.195
		c-0.082,3.208-2.661,5.722-5.871,5.722L83.73,65.919z"/>
	<path fill="#E61B72" d="M83.876,55.177c0.043,0,0.087,0.001,0.131,0.002c2.691,0.069,4.815,2.305,4.745,4.995
		c-0.068,2.647-2.236,4.748-4.871,4.748c-0.042,0-0.084,0-0.126-0.001c-2.69-0.069-4.813-2.307-4.743-4.999
		C79.08,57.275,81.245,55.177,83.876,55.177 M83.876,53.177L83.876,53.177c-3.753,0-6.768,2.94-6.863,6.694
		c-0.048,1.834,0.622,3.579,1.885,4.91c1.264,1.332,2.971,2.091,4.806,2.139l0.178,0.002c3.756,0,6.774-2.941,6.871-6.696
		c0.047-1.835-0.623-3.579-1.887-4.909s-2.971-2.089-4.806-2.137L83.876,53.177L83.876,53.177z"/>
</g>
<line fill="none" stroke="#E61B72" stroke-width="2" stroke-miterlimit="10" x1="116.652" y1="101.581" x2="61.945" y2="121.123"/>
<line fill="none" stroke="#E61B72" stroke-width="2" stroke-miterlimit="10" x1="181.995" y1="94.877" x2="113.764" y2="101.969"/>
<g>
	<path fill="#FFFFFF" d="M117.523,106.835c-1.626,0-3.14-0.65-4.26-1.831c-1.081-1.137-1.653-2.626-1.613-4.194
		c0.041-1.567,0.69-3.026,1.828-4.106c1.096-1.042,2.532-1.615,4.043-1.615c1.626,0,3.139,0.649,4.258,1.828
		c2.229,2.349,2.133,6.074-0.215,8.303C120.469,106.262,119.033,106.835,117.523,106.835z"/>
	<path fill="#E61B72" d="M117.521,96.09c1.289,0,2.576,0.508,3.533,1.517c1.853,1.952,1.774,5.036-0.178,6.889
		c-0.942,0.895-2.148,1.339-3.353,1.339c-1.29,0-2.577-0.509-3.535-1.519c-1.854-1.95-1.774-5.033,0.178-6.886
		C115.109,96.534,116.316,96.09,117.521,96.09 M117.521,94.09L117.521,94.09c-1.769,0-3.449,0.671-4.732,1.89
		c-1.331,1.264-2.091,2.971-2.138,4.805c-0.047,1.835,0.623,3.579,1.888,4.909c1.292,1.36,3.109,2.141,4.985,2.141
		c1.768,0,3.448-0.671,4.73-1.889c2.748-2.609,2.86-6.968,0.251-9.716C121.213,94.87,119.396,94.09,117.521,94.09L117.521,94.09z"/>
</g>
<text transform="matrix(1 0 0 1 3.8237 122.7676)" fill="#1D1D1B" font-family="'AlienLeague'" font-size="11.5033">cinéma 4d</text>
<text transform="matrix(1 0 0 1 113.2642 122.811)" fill="#1D1D1B" font-family="'AlienLeague'" font-size="11.5033">zbrush</text>
<text transform="matrix(1 0 0 1 26.8394 64.1284)" fill="#1D1D1B" font-family="'AlienLeague'" font-size="11.5033">realflow</text>
<line fill="none" stroke="#F29100" stroke-width="2" stroke-miterlimit="10" x1="156.869" y1="273.267" x2="82.042" y2="288.952"/>
<g>
	<path fill="#FFFFFF" d="M82.034,294.825c-2.814,0-5.237-2.012-5.761-4.783c-0.292-1.54,0.033-3.103,0.916-4.397
		c0.883-1.296,2.218-2.171,3.76-2.462c0.362-0.068,0.731-0.104,1.098-0.104c2.813,0,5.238,2.01,5.765,4.78
		c0.6,3.182-1.499,6.26-4.679,6.862C82.771,294.79,82.401,294.825,82.034,294.825z"/>
	<path fill="#F29100" d="M82.046,284.079c2.295,0,4.338,1.63,4.783,3.967c0.499,2.644-1.238,5.192-3.882,5.693
		c-0.306,0.058-0.612,0.086-0.913,0.086c-2.294,0-4.336-1.629-4.778-3.969c-0.5-2.643,1.234-5.191,3.878-5.691
		C81.44,284.107,81.746,284.079,82.046,284.079 M82.047,282.079L82.047,282.079c-0.429,0-0.861,0.041-1.285,0.121
		c-1.804,0.341-3.366,1.364-4.399,2.881c-1.033,1.517-1.414,3.345-1.072,5.147c0.612,3.242,3.449,5.597,6.743,5.597
		c0.429,0,0.861-0.041,1.285-0.121c3.721-0.705,6.177-4.307,5.475-8.029C88.177,284.432,85.34,282.079,82.047,282.079
		L82.047,282.079z"/>
</g>
<line fill="none" stroke="#F29100" stroke-width="2" stroke-miterlimit="10" x1="155.409" y1="274.742" x2="225.187" y2="298.348"/>
<g>
	<path fill="#FFFFFF" d="M225.187,304.221c-0.903,0-1.775-0.204-2.592-0.605c-1.407-0.691-2.461-1.89-2.968-3.373
		c-0.506-1.484-0.403-3.077,0.289-4.485c0.995-2.024,3.016-3.281,5.273-3.281c0.902,0,1.773,0.202,2.588,0.603
		c2.906,1.431,4.106,4.958,2.678,7.862C229.461,302.964,227.442,304.221,225.187,304.221z"/>
	<path fill="#F29100" d="M225.189,293.476c0.723-0.001,1.455,0.16,2.147,0.5c2.413,1.188,3.409,4.107,2.221,6.523
		c-0.846,1.723-2.573,2.722-4.371,2.722c-0.724,0-1.457-0.162-2.15-0.503c-2.415-1.187-3.41-4.104-2.223-6.52
		C221.661,294.475,223.391,293.476,225.189,293.476 M225.19,291.476L225.19,291.476c-2.643,0-5.008,1.472-6.172,3.841
		c-0.81,1.647-0.93,3.512-0.338,5.248c0.593,1.736,1.826,3.139,3.474,3.948c0.953,0.47,1.974,0.708,3.032,0.708
		c2.64,0,5.003-1.472,6.166-3.84c1.672-3.398,0.267-7.525-3.132-9.199C227.265,291.712,226.246,291.476,225.19,291.476
		L225.19,291.476z"/>
</g>
<line fill="none" stroke="#F29100" stroke-width="2" stroke-miterlimit="10" x1="156.949" y1="272.547" x2="129.685" y2="329.629"/>
<g>
	<path fill="#FFFFFF" d="M129.684,335.503c-2.513,0-4.746-1.601-5.557-3.982c-1.043-3.063,0.6-6.405,3.663-7.45
		c0.614-0.209,1.251-0.315,1.895-0.315c2.512,0,4.746,1.6,5.559,3.979c1.043,3.066-0.601,6.409-3.666,7.453
		C130.964,335.396,130.327,335.503,129.684,335.503z"/>
	<path fill="#F29100" d="M129.684,324.755c2.028,0,3.92,1.276,4.613,3.303c0.867,2.547-0.494,5.315-3.042,6.184
		c-0.521,0.178-1.05,0.262-1.571,0.262c-2.027,0-3.919-1.276-4.61-3.305c-0.867-2.546,0.492-5.313,3.039-6.182
		C128.633,324.839,129.163,324.755,129.684,324.755 M129.685,322.755c-0.753,0-1.5,0.124-2.217,0.368
		c-3.585,1.224-5.508,5.136-4.287,8.72c0.949,2.787,3.563,4.66,6.503,4.66c0.753,0,1.499-0.124,2.216-0.369
		c3.586-1.222,5.511-5.134,4.29-8.721C135.238,324.626,132.624,322.755,129.685,322.755L129.685,322.755z"/>
</g>
<line fill="none" stroke="#F29100" stroke-width="2" stroke-miterlimit="10" x1="173.252" y1="220.063" x2="156.949" y2="273.065"/>
<line fill="none" stroke="#E61B72" stroke-width="2" stroke-miterlimit="10" x1="183.244" y1="95.014" x2="244.053" y2="71.552"/>
<g>
	<path fill="#FFFFFF" d="M244.048,77.424c-1.173,0-2.309-0.349-3.284-1.008c-1.3-0.879-2.18-2.211-2.477-3.751
		c-0.298-1.541,0.022-3.104,0.902-4.404c1.094-1.617,2.913-2.583,4.867-2.583c1.174,0,2.31,0.349,3.285,1.008
		c1.299,0.879,2.179,2.211,2.477,3.751c0.297,1.54-0.023,3.104-0.902,4.403C247.823,76.458,246.003,77.424,244.048,77.424z"/>
	<path fill="#E61B72" d="M244.057,66.678c0.939,0,1.888,0.271,2.725,0.836c2.229,1.508,2.814,4.536,1.307,6.765
		c-0.94,1.393-2.477,2.144-4.04,2.144c-0.939,0-1.888-0.271-2.725-0.836c-2.229-1.507-2.814-4.536-1.306-6.766
		C240.959,67.429,242.494,66.678,244.057,66.678 M244.058,64.678L244.058,64.678c-2.287,0-4.417,1.13-5.696,3.022
		c-1.029,1.521-1.404,3.351-1.056,5.154c0.348,1.802,1.377,3.361,2.897,4.39c1.142,0.772,2.471,1.18,3.845,1.18
		c2.288,0,4.418-1.131,5.697-3.024c1.028-1.52,1.402-3.35,1.055-5.152s-1.377-3.361-2.898-4.39
		C246.76,65.086,245.431,64.678,244.058,64.678L244.058,64.678z"/>
</g>
<line fill="none" stroke="#E61B72" stroke-width="2" stroke-miterlimit="10" x1="179.87" y1="93.58" x2="181.153" y2="49.091"/>
<g>
	<path fill="#FFFFFF" d="M181.16,54.963c-0.28,0-0.563-0.02-0.848-0.061c-3.204-0.463-5.434-3.446-4.971-6.651
		c0.415-2.869,2.91-5.033,5.805-5.033c0.279,0,0.562,0.02,0.847,0.061c3.203,0.462,5.434,3.446,4.973,6.65
		C186.551,52.799,184.055,54.963,181.16,54.963z"/>
	<path fill="#E61B72" d="M181.146,44.219c0.231,0,0.467,0.017,0.703,0.051c2.662,0.384,4.51,2.854,4.126,5.518
		c-0.351,2.427-2.433,4.176-4.815,4.176c-0.232,0-0.468-0.017-0.704-0.051c-2.663-0.385-4.51-2.855-4.125-5.518
		C176.682,45.967,178.764,44.219,181.146,44.219 M181.146,42.219c-3.389,0-6.31,2.532-6.795,5.89
		c-0.542,3.75,2.068,7.242,5.818,7.784c0.328,0.047,0.661,0.071,0.99,0.071c3.389,0,6.31-2.532,6.795-5.89
		c0.54-3.751-2.07-7.242-5.819-7.783C181.809,42.243,181.476,42.219,181.146,42.219L181.146,42.219z"/>
</g>
<line fill="none" stroke="#E61B72" stroke-width="2" stroke-miterlimit="10" x1="146.459" y1="162.091" x2="104.268" y2="155.635"/>
<g>
	<path fill="#FFFFFF" d="M104.274,161.507c-0.279,0-0.562-0.02-0.847-0.061c-3.205-0.463-5.435-3.447-4.972-6.651
		c0.414-2.869,2.91-5.033,5.805-5.033c0.279,0,0.562,0.02,0.847,0.061c1.552,0.224,2.924,1.039,3.864,2.295s1.333,2.803,1.109,4.355
		C109.666,159.343,107.17,161.507,104.274,161.507z"/>
	<path fill="#E61B72" d="M104.26,150.762c0.232,0,0.467,0.017,0.704,0.051c2.663,0.384,4.511,2.854,4.126,5.518
		c-0.35,2.427-2.433,4.176-4.816,4.176c-0.232,0-0.467-0.017-0.704-0.051c-2.663-0.385-4.51-2.854-4.125-5.518
		C99.795,152.511,101.878,150.762,104.26,150.762 M104.26,148.762L104.26,148.762c-3.389,0-6.311,2.532-6.795,5.89
		c-0.542,3.75,2.069,7.241,5.819,7.783c0.328,0.047,0.661,0.071,0.99,0.071c3.39,0,6.311-2.532,6.795-5.891
		c0.263-1.817-0.199-3.627-1.298-5.097c-1.099-1.47-2.705-2.423-4.522-2.686C104.922,148.786,104.589,148.762,104.26,148.762
		L104.26,148.762z"/>
</g>
<g>
	<path fill="#FFFFFF" d="M156.796,278.935c-1.568-0.041-3.026-0.688-4.106-1.825c-1.08-1.136-1.653-2.626-1.612-4.194
		c0.083-3.208,2.662-5.722,5.872-5.722l0.149,0.002c3.237,0.085,5.803,2.786,5.72,6.022c-0.083,3.207-2.66,5.719-5.867,5.719
		L156.796,278.935z"/>
	<path fill="#F29100" d="M156.95,268.193c0.042,0,0.083,0.001,0.125,0.002c2.689,0.07,4.814,2.307,4.745,4.997
		c-0.068,2.646-2.234,4.744-4.868,4.744c-0.043,0-0.086-0.001-0.13-0.002c-2.69-0.069-4.814-2.303-4.744-4.993
		C152.146,270.293,154.315,268.194,156.95,268.193 M156.95,266.193L156.95,266.193c-3.756,0.001-6.774,2.941-6.872,6.696
		c-0.047,1.835,0.623,3.579,1.887,4.909c1.264,1.329,2.97,2.088,4.805,2.135l0.182,0.003c3.754,0,6.771-2.939,6.867-6.692
		c0.097-3.788-2.905-6.949-6.692-7.048L156.95,266.193L156.95,266.193z"/>
</g>
<line fill="none" stroke="#E61B72" stroke-width="2" stroke-miterlimit="10" x1="149.22" y1="159.602" x2="181.181" y2="95.352"/>
<g>
	<path fill="#FFFFFF" d="M181.163,101.223c-1.569-0.005-3.042-0.621-4.147-1.733c-1.106-1.113-1.712-2.59-1.706-4.159
		c0.009-3.227,2.644-5.853,5.871-5.853c1.587,0.005,3.06,0.62,4.165,1.732c1.106,1.113,1.712,2.589,1.707,4.158
		c-0.011,3.228-2.645,5.854-5.872,5.854H181.163z"/>
	<path fill="#E61B72" d="M181.181,90.479c0.006,0,0.011,0,0.016,0c2.69,0.008,4.865,2.196,4.856,4.887
		c-0.009,2.685-2.187,4.857-4.872,4.857c-0.005,0-0.01,0-0.015,0c-2.69-0.009-4.866-2.196-4.856-4.888
		C176.317,92.65,178.497,90.479,181.181,90.479 M181.181,88.479c-3.777,0-6.86,3.073-6.871,6.851
		c-0.007,1.835,0.703,3.563,1.997,4.866c1.294,1.302,3.018,2.022,4.853,2.028c3.798,0,6.881-3.073,6.894-6.851
		c0.006-1.836-0.703-3.564-1.997-4.866c-1.294-1.302-3.018-2.021-4.854-2.027h-0.003H181.181L181.181,88.479z"/>
</g>
<line fill="none" stroke="#E61B72" stroke-width="2" stroke-miterlimit="10" x1="173.642" y1="221.393" x2="149.934" y2="161.086"/>
<polyline fill="none" stroke="#E61B72" stroke-width="2" stroke-miterlimit="10" points="345.932,255.132 312.421,221.376 
	173.642,221.393 "/>
<g>
	<path fill="#FFFFFF" d="M149.939,166.959c-0.375,0-0.752-0.037-1.122-0.108c-1.54-0.298-2.872-1.178-3.75-2.478
		c-0.878-1.299-1.197-2.863-0.899-4.403c0.534-2.756,2.955-4.757,5.758-4.757c0.375,0,0.752,0.036,1.123,0.108
		c1.54,0.298,2.871,1.177,3.75,2.477c0.878,1.3,1.198,2.864,0.9,4.404C155.165,164.958,152.743,166.959,149.939,166.959z"/>
	<path fill="#E61B72" d="M149.926,156.214c0.308,0,0.62,0.029,0.933,0.09c2.642,0.511,4.37,3.066,3.858,5.708
		c-0.451,2.329-2.491,3.947-4.778,3.947c-0.308,0-0.619-0.029-0.932-0.09c-2.642-0.511-4.369-3.067-3.857-5.708
		C145.601,157.832,147.64,156.214,149.926,156.214 M149.926,154.214L149.926,154.214c-3.281,0-6.116,2.341-6.74,5.567
		c-0.349,1.802,0.024,3.632,1.052,5.153c1.028,1.521,2.586,2.55,4.389,2.899c0.433,0.084,0.874,0.126,1.312,0.126
		c3.282,0,6.117-2.341,6.741-5.567c0.349-1.802-0.025-3.633-1.053-5.154c-1.028-1.521-2.586-2.55-4.389-2.898
		C150.807,154.256,150.365,154.214,149.926,154.214L149.926,154.214z"/>
</g>
<rect x="196.99" y="197.916" fill="#E61B72" width="101.255" height="23.182"/>
<g>
	<text transform="matrix(1 0 0 1 202.9043 217.6006)" fill="#FFFFFF" font-family="'AlienLeague'" font-size="17.255">COMPétences</text>
</g>
<text transform="matrix(1 0 0 1 192.4971 116.6587)" fill="#1D1D1B" font-family="'AlienLeague'" font-size="11.5033">photoshop</text>
<text transform="matrix(1 0 0 1 158.9136 164.4941)" fill="#1D1D1B" font-family="'AlienLeague'" font-size="11.5033">illustrator</text>
<text transform="matrix(1 0 0 1 191.29 51.5015)" fill="#1D1D1B" font-family="'AlienLeague'" font-size="11.5033">indesign</text>
<text transform="matrix(1 0 0 1 254.7061 66.5405)"><tspan x="0" y="0" fill="#1D1D1B" font-family="'AlienLeague'" font-size="11.5033">after</tspan><tspan x="0" y="13.804" fill="#1D1D1B" font-family="'AlienLeague'" font-size="11.5033">effect</tspan></text>
<text transform="matrix(1 0 0 1 56.7295 158.0166)" fill="#1D1D1B" font-family="'AlienLeague'" font-size="11.5033">premier</text>
<g>
	<path fill="#F29100" d="M175.901,229.698c-0.738,0.215-1.499,0.324-2.261,0.324c-3.569,0-6.76-2.396-7.758-5.828
		c-0.288-0.99-0.37-1.99-0.284-2.96h-0.96c-0.083,1.059,0.009,2.149,0.323,3.228c1.117,3.838,4.686,6.519,8.679,6.519
		c0.853,0,1.704-0.122,2.529-0.362c4.18-1.216,6.814-5.205,6.487-9.384h-0.962C182.023,224.997,179.662,228.603,175.901,229.698z"/>
	<path fill="#F29100" d="M165.882,224.194c0.998,3.431,4.188,5.828,7.758,5.828c0.762,0,1.523-0.109,2.261-0.324
		c3.761-1.096,6.123-4.701,5.793-8.464h-0.967c0.336,3.351-1.745,6.569-5.095,7.544c-0.665,0.193-1.334,0.286-1.993,0.286
		c-3.087,0-5.931-2.022-6.838-5.137c-0.262-0.901-0.333-1.813-0.246-2.693h-0.958C165.512,222.204,165.594,223.205,165.882,224.194z
		"/>
</g>
<path fill="#FFFFFF" d="M180.728,221.234c-0.042-0.429-0.119-0.86-0.244-1.289c-0.906-3.113-3.75-5.135-6.837-5.135
	c-0.66,0-1.33,0.092-1.995,0.286c-2.876,0.837-4.816,3.329-5.095,6.138c-0.087,0.88-0.017,1.792,0.246,2.693
	c0.907,3.114,3.751,5.137,6.838,5.137c0.659,0,1.329-0.093,1.993-0.286C178.982,227.803,181.063,224.585,180.728,221.234z"/>
<path fill="#E61B72" d="M182.325,219.41c-1.118-3.837-4.687-6.516-8.679-6.516c-0.854,0-1.705,0.122-2.531,0.362
	c-3.708,1.078-6.189,4.339-6.478,7.979h0.96h0.958c0.279-2.809,2.219-5.301,5.095-6.138c0.665-0.194,1.335-0.286,1.995-0.286
	c3.087,0,5.931,2.022,6.837,5.135c0.125,0.429,0.202,0.86,0.244,1.289h0.967h0.962C182.609,220.627,182.501,220.017,182.325,219.41z
	"/>
<g>
	<text transform="matrix(1 0 0 1 166.6924 267.6553)" fill="#1D1D1B" font-family="'AlienLeague'" font-size="11.5033">git</text>
</g>
<g>
	<text transform="matrix(1 0 0 1 218.0449 271.1943)"><tspan x="0" y="0" fill="#1D1D1B" font-family="'AlienLeague'" font-size="11.5033">Linux</tspan><tspan x="-6.694" y="13.804" fill="#1D1D1B" font-family="'AlienLeague'" font-size="11.5033">DEBIAN</tspan></text>
</g>
<text transform="matrix(1 0 0 1 11.2715 247.3848)" fill="#1D1D1B" font-family="'AlienLeague'" font-size="11.5033">HTML5</text>
<text transform="matrix(1 0 0 1 71.2935 277.0361)" fill="#1D1D1B" font-family="'AlienLeague'" font-size="11.5033">css 3</text>
<text transform="matrix(1 0 0 1 110.1284 321.9551)" fill="#1D1D1B" font-family="'AlienLeague'" font-size="11.5033">Js</text>
<text transform="matrix(1 0 0 1 24.5273 346.375)" fill="#1D1D1B" font-family="'AlienLeague'" font-size="11.5033">J query</text>
<text transform="matrix(1 0 0 1 171.27 385.4619)" fill="#1D1D1B" font-family="'AlienLeague'" font-size="11.5033">Ruby</text>
<text transform="matrix(1 0 0 1 160.6182 435.3799)"><tspan x="0" y="0" fill="#1D1D1B" font-family="'AlienLeague'" font-size="11.5033">ruby on</tspan><tspan x="5.556" y="13.804" fill="#1D1D1B" font-family="'AlienLeague'" font-size="11.5033">rails</tspan></text>
<text transform="matrix(1 0 0 1 291.0322 372.3105)" fill="#1D1D1B" font-family="'AlienLeague'" font-size="11.5033">My SQL</text>
<text transform="matrix(1 0 0 1 259.9102 318.8105)" fill="#1D1D1B" font-family="'AlienLeague'" font-size="11.5033">wordpress</text>
<text transform="matrix(1 0 0 1 192.3145 340.1201)" fill="#1D1D1B" font-family="'AlienLeague'" font-size="11.5033">bootstrap</text>
<text transform="matrix(1 0 0 1 210.7598 395.2461)" fill="#1D1D1B" font-family="'AlienLeague'" font-size="11.5033">symphony</text>
<text transform="matrix(1 0 0 1 30.1729 399.0117)" fill="#1D1D1B" font-family="'AlienLeague'" font-size="11.5033">Angular JS</text>
<text transform="matrix(1 0 0 1 247.9316 456.6553)" fill="#1D1D1B" font-family="'AlienLeague'" font-size="11.5033">ajax</text>
<text transform="matrix(1 0 0 1 318.5518 422.0127)" fill="#1D1D1B" font-family="'AlienLeague'" font-size="11.5033">Ionic</text>
</svg>
