<?xml version="1.0" encoding="utf-8"?>
<!-- Generator: Adobe Illustrator 16.0.0, SVG Export Plug-In . SVG Version: 6.00 Build 0)  -->
<!DOCTYPE svg PUBLIC "-//W3C//DTD SVG 1.1//EN" "http://www.w3.org/Graphics/SVG/1.1/DTD/svg11.dtd">
<svg version="1.1" id="Calque_1" xmlns="http://www.w3.org/2000/svg" xmlns:xlink="http://www.w3.org/1999/xlink" x="0px" y="0px"
	 width="350px" height="200px" viewBox="0 0 350 200" enable-background="new 0 0 350 200" xml:space="preserve">
<line fill="none" stroke="#93C01F" stroke-width="2" stroke-miterlimit="10" x1="67.949" y1="125.265" x2="94.417" y2="139.314"/>
<g>
	<path fill="#FFFFFF" d="M95.395,146.99c-2.603,0-4.916-1.657-5.756-4.125c-1.081-3.173,0.621-6.635,3.794-7.717
		c0.636-0.217,1.296-0.327,1.963-0.327c2.601,0,4.915,1.656,5.757,4.122c1.081,3.176-0.623,6.639-3.797,7.721
		C96.72,146.881,96.06,146.99,95.395,146.99z"/>
	<path fill="#93C01F" d="M95.396,135.821c2.115,0,4.088,1.332,4.811,3.445c0.904,2.657-0.516,5.545-3.174,6.451
		c-0.543,0.185-1.095,0.272-1.638,0.272c-2.115,0-4.089-1.331-4.809-3.447c-0.905-2.656,0.512-5.542,3.17-6.448
		C94.299,135.909,94.852,135.821,95.396,135.821 M95.396,133.821L95.396,133.821c-0.777,0-1.545,0.128-2.286,0.381
		c-3.695,1.26-5.677,5.291-4.417,8.986c0.978,2.872,3.671,4.802,6.702,4.802c0.776,0,1.544-0.127,2.283-0.379
		c3.696-1.261,5.68-5.293,4.422-8.989C101.118,135.75,98.424,133.821,95.396,133.821L95.396,133.821z"/>
</g>
<line fill="none" stroke="#93C01F" stroke-width="2" stroke-miterlimit="10" x1="242.973" y1="118.814" x2="270.337" y2="152.047"/>
<g>
	<path fill="#FFFFFF" d="M271.914,160.014c-1.921,0-3.75-0.922-4.893-2.466c-1.993-2.693-1.422-6.51,1.272-8.508
		c1.056-0.78,2.305-1.191,3.612-1.191c1.924,0,3.754,0.922,4.897,2.467c0.967,1.306,1.365,2.91,1.124,4.517
		c-0.241,1.605-1.095,3.022-2.401,3.988C274.472,159.601,273.223,160.014,271.914,160.014z"/>
	<path fill="#93C01F" d="M271.906,148.849c1.558,0,3.096,0.713,4.094,2.062c1.669,2.256,1.19,5.437-1.068,7.106
		c-0.909,0.673-1.968,0.997-3.018,0.997c-1.556,0-3.091-0.712-4.089-2.061c-1.67-2.257-1.191-5.438,1.064-7.109
		C269.798,149.172,270.857,148.849,271.906,148.849 M271.907,146.849L271.907,146.849c-1.524,0-2.979,0.479-4.206,1.387
		c-3.14,2.327-3.805,6.771-1.483,9.907c1.33,1.798,3.46,2.871,5.696,2.871c1.523,0,2.979-0.48,4.207-1.39
		c1.521-1.124,2.515-2.773,2.796-4.644c0.281-1.871-0.184-3.739-1.31-5.26C276.276,147.922,274.146,146.849,271.907,146.849
		L271.907,146.849z"/>
</g>
<line fill="none" stroke="#93C01F" stroke-width="2" stroke-miterlimit="10" x1="177.73" y1="157.142" x2="240.583" y2="118.4"/>
<g>
	<path fill="#FFFFFF" d="M242.152,125.503c-1.659,0-3.209-0.656-4.366-1.848c-2.336-2.405-2.28-6.262,0.125-8.599
		c1.141-1.108,2.646-1.72,4.236-1.72c1.657,0,3.207,0.655,4.364,1.844c2.337,2.407,2.28,6.266-0.126,8.604
		C245.246,124.893,243.742,125.503,242.152,125.503z"/>
	<path fill="#93C01F" d="M242.147,114.337c1.325,0,2.649,0.516,3.647,1.541c1.955,2.014,1.909,5.231-0.105,7.188
		c-0.986,0.959-2.263,1.437-3.537,1.437c-1.326,0-2.65-0.517-3.648-1.544c-1.955-2.013-1.911-5.228,0.104-7.185
		C239.595,114.814,240.872,114.338,242.147,114.337 M242.147,112.337L242.147,112.337c-1.853,0.001-3.605,0.712-4.934,2.003
		c-2.801,2.721-2.865,7.212-0.145,10.013c1.346,1.387,3.151,2.15,5.083,2.15c1.852,0,3.603-0.711,4.931-2.002
		c2.801-2.721,2.867-7.215,0.146-10.017C245.882,113.1,244.077,112.337,242.147,112.337L242.147,112.337z"/>
</g>
<line fill="none" stroke="#93C01F" stroke-width="2" stroke-miterlimit="10" x1="132.976" y1="84.196" x2="21.642" y2="154.147"/>
<line fill="none" stroke="#93C01F" stroke-width="2" stroke-miterlimit="10" x1="138.257" y1="81.962" x2="176.065" y2="155.263"/>
<line fill="none" stroke="#93C01F" stroke-width="2" stroke-miterlimit="10" x1="11.29" y1="22.571" x2="135.659" y2="81.265"/>
<g>
	<path fill="#FFFFFF" d="M67.947,131.35c-2.603,0-4.916-1.657-5.756-4.125c-1.081-3.173,0.621-6.635,3.794-7.717
		c0.636-0.217,1.296-0.327,1.963-0.327c2.601,0,4.915,1.656,5.757,4.122c1.081,3.176-0.623,6.639-3.797,7.721
		C69.273,131.24,68.613,131.35,67.947,131.35z"/>
	<path fill="#93C01F" d="M67.948,120.181c2.115,0,4.088,1.332,4.811,3.445c0.904,2.657-0.516,5.545-3.174,6.451
		c-0.543,0.185-1.095,0.272-1.638,0.272c-2.115,0-4.089-1.331-4.809-3.447c-0.905-2.656,0.512-5.542,3.17-6.448
		C66.852,120.269,67.405,120.181,67.948,120.181 M67.948,118.181L67.948,118.181c-0.777,0-1.545,0.128-2.286,0.381
		c-3.695,1.26-5.677,5.291-4.417,8.986c0.978,2.872,3.671,4.802,6.702,4.802c0.776,0,1.544-0.127,2.283-0.379
		c3.696-1.261,5.68-5.293,4.422-8.989C73.67,120.109,70.977,118.181,67.948,118.181L67.948,118.181z"/>
</g>
<g>
	<path fill="#FFFFFF" d="M177.043,162.938c-2.603,0-4.916-1.657-5.756-4.125c-1.082-3.173,0.621-6.635,3.794-7.717
		c0.636-0.217,1.297-0.327,1.963-0.327c2.602,0,4.915,1.656,5.758,4.122c1.081,3.176-0.623,6.639-3.798,7.721
		C178.369,162.829,177.709,162.938,177.043,162.938z"/>
	<path fill="#93C01F" d="M177.044,151.77c2.115,0,4.089,1.332,4.812,3.445c0.904,2.657-0.516,5.545-3.174,6.451
		c-0.543,0.185-1.096,0.272-1.639,0.272c-2.115,0-4.089-1.331-4.809-3.447c-0.905-2.656,0.512-5.542,3.17-6.448
		C175.947,151.857,176.501,151.77,177.044,151.77 M177.044,149.77L177.044,149.77c-0.776,0-1.545,0.128-2.286,0.381
		c-3.695,1.26-5.677,5.291-4.417,8.986c0.978,2.872,3.671,4.802,6.702,4.802c0.776,0,1.544-0.127,2.284-0.379
		c3.696-1.261,5.68-5.293,4.422-8.989C182.767,151.698,180.073,149.77,177.044,149.77L177.044,149.77z"/>
</g>
<rect x="51.841" y="33.253" transform="matrix(0.91 0.4146 -0.4146 0.91 26.5935 -32.4796)" fill="#93C01F" width="72.545" height="23.53"/>
<g>
	<text transform="matrix(0.91 0.4146 -0.4146 0.91 61.9365 41.1558)" fill="#FFFFFF" font-family="'AlienLeague'" font-size="18">loisirs</text>
</g>
<g>
	<path fill="#FFFFFF" d="M135.656,89.699c-2.364,0-4.634-1.001-6.228-2.747c-1.52-1.662-2.301-3.817-2.199-6.067
		c0.102-2.249,1.075-4.324,2.738-5.843c1.557-1.424,3.576-2.208,5.684-2.208c2.363,0,4.633,1,6.228,2.745
		c1.519,1.664,2.3,3.819,2.198,6.068c-0.102,2.25-1.074,4.326-2.737,5.845C139.783,88.916,137.764,89.699,135.656,89.699z"/>
	<path fill="#93C01F" d="M135.652,73.834c2.015,0,4.022,0.815,5.489,2.42c2.769,3.031,2.557,7.731-0.475,10.5
		c-1.426,1.302-3.221,1.945-5.011,1.945c-2.015,0-4.023-0.815-5.489-2.421c-2.771-3.03-2.557-7.729,0.476-10.497
		C132.067,74.478,133.862,73.834,135.652,73.834 M135.652,71.834L135.652,71.834c-2.359,0-4.618,0.878-6.36,2.472
		c-1.859,1.697-2.947,4.019-3.062,6.535s0.759,4.927,2.46,6.787c1.782,1.951,4.321,3.071,6.965,3.071
		c2.358,0,4.617-0.877,6.359-2.469c1.861-1.699,2.948-4.021,3.062-6.538s-0.76-4.927-2.459-6.788
		C140.834,72.953,138.295,71.834,135.652,71.834L135.652,71.834z"/>
</g>
<text transform="matrix(1 0 0 1 283.1816 158.8174)" fill="#1D1D1B" font-family="'AlienLeague'" font-size="12">Photographie</text>
<text transform="matrix(1 0 0 1 2.5562 176.5332)" fill="#1D1D1B" font-family="'AlienLeague'" font-size="12">skate</text>
<text transform="matrix(1 0 0 1 225.5957 106.4531)" fill="#1D1D1B" font-family="'AlienLeague'" font-size="12">cinema</text>
<text transform="matrix(1 0 0 1 157.5269 177.3281)" fill="#1D1D1B" font-family="'AlienLeague'" font-size="12">voyages</text>
<text transform="matrix(1 0 0 1 41.8169 120.1826)" fill="#1D1D1B" font-family="'AlienLeague'" font-size="12">ARt</text>
<text transform="matrix(1 0 0 1 68.7183 160.1592)" fill="#1D1D1B" font-family="'AlienLeague'" font-size="12">aquascaping</text>
<g>
	<path fill="#FFFFFF" d="M21.499,161.084c-2.603,0-4.916-1.657-5.756-4.125c-1.081-3.174,0.621-6.635,3.794-7.717
		c0.636-0.217,1.296-0.327,1.963-0.327c2.601,0,4.915,1.657,5.757,4.122c1.081,3.176-0.623,6.639-3.798,7.721
		C22.825,160.975,22.165,161.084,21.499,161.084z"/>
	<path fill="#93C01F" d="M21.5,149.915c2.115,0,4.088,1.332,4.811,3.445c0.904,2.657-0.516,5.545-3.174,6.451
		c-0.543,0.185-1.095,0.272-1.638,0.272c-2.115,0-4.089-1.331-4.809-3.447c-0.905-2.656,0.512-5.542,3.17-6.448
		C20.403,150.004,20.957,149.915,21.5,149.915 M21.5,147.915L21.5,147.915c-0.777,0-1.545,0.128-2.286,0.38
		c-3.695,1.26-5.677,5.291-4.417,8.987c0.978,2.872,3.671,4.802,6.702,4.802c0.776,0,1.544-0.127,2.284-0.379
		c3.696-1.261,5.68-5.293,4.422-8.989C27.222,149.844,24.529,147.915,21.5,147.915L21.5,147.915z"/>
</g>
</svg>
